<svg width="66" height="59" viewBox="0 0 66 59" fill="none" xmlns="http://www.w3.org/2000/svg">
<path d="M33 58.5C30.6 56.6 28 55.125 25.2 54.075C22.4 53.025 19.5 52.5 16.5 52.5C14.4 52.5 12.3375 52.775 10.3125 53.325C8.2875 53.875 6.35 54.65 4.5 55.65C3.45 56.2 2.4375 56.175 1.4625 55.575C0.4875 54.975 0 54.1 0 52.95V16.8C0 16.25 0.1375 15.725 0.4125 15.225C0.6875 14.725 1.1 14.35 1.65 14.1C3.95 12.9 6.35 12 8.85 11.4C11.35 10.8 13.9 10.5 16.5 10.5C19.4 10.5 22.2375 10.875 25.0125 11.625C27.7875 12.375 30.45 13.5 33 15V51.3C35.55 49.7 38.225 48.5 41.025 47.7C43.825 46.9 46.65 46.5 49.5 46.5C51.3 46.5 53.0625 46.65 54.7875 46.95C56.5125 47.25 58.25 47.7 60 48.3V48.3V48.3V12.3C60.75 12.55 61.4875 12.8125 62.2125 13.0875C62.9375 13.3625 63.65 13.7 64.35 14.1C64.9 14.35 65.3125 14.725 65.5875 15.225C65.8625 15.725 66 16.25 66 16.8V52.95C66 54.1 65.5125 54.975 64.5375 55.575C63.5625 56.175 62.55 56.2 61.5 55.65C59.65 54.65 57.7125 53.875 55.6875 53.325C53.6625 52.775 51.6 52.5 49.5 52.5C46.5 52.5 43.6 53.025 40.8 54.075C38 55.125 35.4 56.6 33 58.5V58.5M39 43.5V15L54 0V30L39 43.5V43.5" fill="#6BFF8F"/>
</svg>
