<svg width="22" height="18" viewBox="0 0 22 18" fill="none" xmlns="http://www.w3.org/2000/svg">
<path d="M8.26477 17.6067L2.2078 12.4343L3.45527 6.56544L8.66055e-05 3.58187L12.0072 1.41561e-05L21.5193 8.15593L19.856 15.9811L17.8998 15.5653L19.3343 8.81607L17.1493 9.47621L15.9019 15.3451L8.26477 17.6067V17.6067M9.99044 9.48805L17.46 7.2931L11.529 2.24975L4.0594 4.4447L9.99044 9.48805V9.48805M8.73777 15.3814L14.1899 13.78L14.9747 10.0874L9.51224 11.7378L5.19326 8.00832L4.40839 11.7008L8.73777 15.3814V15.3814M9.99044 9.48805V9.48805V9.48805V9.48805V9.48805V9.48805M9.52264 11.6889V11.6889V11.6889V11.6889V11.6889V11.6889V11.6889V11.6889V11.6889V11.6889M9.52264 11.6889V11.6889V11.6889V11.6889V11.6889V11.6889V11.6889V11.6889V11.6889V11.6889" fill="white"/>
</svg>
